<?xml version="1.0" encoding="UTF-8"?>
<svg width="180" height="40" viewBox="0 0 180 40" fill="none" xmlns="http://www.w3.org/2000/svg">
  <defs>
    <linearGradient id="g" x1="0" y1="0" x2="180" y2="40" gradientUnits="userSpaceOnUse">
      <stop stop-color="#FF2A7A"/>
      <stop offset="0.55" stop-color="#7C3AED"/>
      <stop offset="1" stop-color="#3B82F6"/>
    </linearGradient>
  </defs>
  <rect x="2" y="6" width="28" height="28" rx="10" fill="url(#g)"/>
  <g fill="#fff">
    <path d="M13 16c2.2-2.2 5.8-2.2 8 0l1 .98c.8.8.8 2.1 0 2.9-.8.8-2.1.8-2.9 0l-.4-.4c-.9-.9-2.4-.9-3.3 0l-.4.4c-.8.8-2.1.8-2.9 0-.8-.8-.8-2.1 0-2.9L13 16z"/>
    <circle cx="16.5" cy="23.5" r="1.2"/>
    <circle cx="21.5" cy="23.5" r="1.2"/>
  </g>
  <text x="40" y="27" font-family="Inter, Segoe UI, Roboto, Helvetica, Arial" font-weight="800" font-size="20" fill="url(#g)">NGO Connect</text>
</svg>
